<?xml version="1.0" encoding="UTF-8" standalone="no"?>
<!DOCTYPE svg PUBLIC "-//W3C//DTD SVG 1.1//EN" "http://www.w3.org/Graphics/SVG/1.1/DTD/svg11.dtd">
<svg width="100%" height="100%" viewBox="0 0 200 200" version="1.1" xmlns="http://www.w3.org/2000/svg" xmlns:xlink="http://www.w3.org/1999/xlink" xml:space="preserve" xmlns:serif="http://www.serif.com/" style="fill-rule:evenodd;clip-rule:evenodd;stroke-linecap:round;stroke-linejoin:round;stroke-miterlimit:1.5;">
    <rect id="logo" x="0" y="0" width="200" height="200" style="fill:none;"/>
    <g id="logo1" serif:id="logo">
        <g transform="matrix(1.41432,0,0,1.41432,-73.1814,-64.0657)">
            <circle cx="122.448" cy="116.003" r="67.772" style="fill:white;stroke:black;stroke-width:1.51px;"/>
        </g>
        <g transform="matrix(0.305922,0,0,0.306197,-4.1665,-1.48244)">
            <path d="M194.126,451.543L194.126,172.003L486.874,172.003L486.874,451.543C486.874,461.13 485.939,470.624 484.068,480.026C482.198,489.429 479.429,498.558 475.76,507.415C472.091,516.272 467.594,524.686 462.268,532.656C456.942,540.627 450.89,548.002 444.111,554.781C437.333,561.56 429.958,567.612 421.987,572.938C414.016,578.264 405.602,582.761 396.745,586.43C387.889,590.098 378.759,592.868 369.357,594.738C359.955,596.608 350.46,597.543 340.874,597.543L340.126,597.543C330.54,597.543 321.045,596.608 311.643,594.738C302.241,592.868 293.111,590.098 284.254,586.43C275.398,582.761 266.984,578.264 259.013,572.938C251.042,567.612 243.667,561.56 236.889,554.781C230.11,548.002 224.058,540.627 218.732,532.656C213.406,524.686 208.908,516.272 205.24,507.415C201.571,498.558 198.802,489.429 196.932,480.026C195.061,470.624 194.126,461.13 194.126,451.543Z" style="fill:white;"/>
            <path d="M194.126,376.126L486.874,376.126L486.874,451.17C486.874,532.009 421.34,597.543 340.5,597.543C259.66,597.543 194.126,532.009 194.126,451.17L194.126,376.126Z" style="fill:rgb(186,177,162);fill-rule:nonzero;"/>
            <path d="M183.061,406.926C176.605,406.926 170.345,405.663 164.453,403.171C158.761,400.763 153.648,397.316 149.256,392.924C144.865,388.533 141.417,383.42 139.009,377.728C136.517,371.836 135.254,365.576 135.254,359.12C135.254,352.665 136.517,346.404 139.009,340.513C141.417,334.82 144.865,329.707 149.256,325.316C153.648,320.924 158.761,317.477 164.453,315.069C170.345,312.577 176.605,311.314 183.061,311.314C188.063,311.314 192.966,312.077 197.669,313.586L197.669,404.654C192.966,406.163 188.063,406.926 183.061,406.926Z" style="fill:white;fill-rule:nonzero;"/>
            <path d="M183.061,403.426C186.843,403.426 190.562,402.956 194.169,402.025L194.169,316.215C190.562,315.284 186.843,314.814 183.061,314.814C177.076,314.814 171.274,315.984 165.817,318.293C160.541,320.524 155.802,323.72 151.731,327.791C147.66,331.862 144.464,336.601 142.233,341.876C139.924,347.334 138.754,353.136 138.754,359.12C138.754,365.105 139.924,370.906 142.233,376.364C144.464,381.639 147.66,386.378 151.731,390.449C155.802,394.521 160.541,397.716 165.817,399.947C171.274,402.256 177.076,403.426 183.061,403.426M183.061,410.426C176.134,410.426 169.415,409.07 163.09,406.394C156.98,403.81 151.493,400.111 146.781,395.399C142.069,390.687 138.37,385.2 135.786,379.091C133.111,372.766 131.754,366.047 131.754,359.12C131.754,352.194 133.111,345.475 135.786,339.149C138.37,333.04 142.069,327.553 146.781,322.841C151.493,318.129 156.98,314.43 163.09,311.846C169.415,309.17 176.134,307.814 183.061,307.814C189.296,307.814 195.388,308.92 201.169,311.101L201.169,407.139C195.387,409.321 189.295,410.426 183.061,410.426Z" style="fill-rule:nonzero;"/>
            <path d="M169.912,342.316L187.084,359.489L169.912,376.661" style="fill:none;stroke:black;stroke-width:7px;stroke-miterlimit:4;"/>
            <path d="M497.94,311.314C504.395,311.314 510.656,312.577 516.547,315.069C522.239,317.477 527.352,320.924 531.744,325.316C536.136,329.707 539.583,334.82 541.991,340.512C544.483,346.404 545.746,352.664 545.746,359.12C545.746,365.575 544.483,371.836 541.991,377.727C539.583,383.42 536.136,388.533 531.744,392.924C527.352,397.316 522.239,400.763 516.547,403.171C510.655,405.663 504.395,406.926 497.94,406.926C492.937,406.926 488.034,406.163 483.332,404.654L483.332,313.586C488.034,312.077 492.937,311.314 497.94,311.314Z" style="fill:white;fill-rule:nonzero;"/>
            <path d="M497.94,314.814C494.158,314.814 490.438,315.284 486.832,316.215L486.832,402.025C490.438,402.956 494.158,403.426 497.94,403.426C503.924,403.426 509.726,402.256 515.184,399.947C520.459,397.716 525.198,394.52 529.269,390.449C533.34,386.378 536.536,381.639 538.767,376.364C541.076,370.906 542.246,365.104 542.246,359.12C542.246,353.135 541.076,347.334 538.767,341.876C536.536,336.601 533.341,331.862 529.269,327.791C525.198,323.72 520.459,320.524 515.184,318.293C509.726,315.984 503.924,314.814 497.94,314.814M497.94,307.814C504.866,307.814 511.585,309.17 517.91,311.846C524.02,314.43 529.507,318.129 534.219,322.841C538.931,327.553 542.63,333.04 545.214,339.149C547.89,345.474 549.246,352.193 549.246,359.12C549.246,366.046 547.89,372.765 545.214,379.091C542.63,385.2 538.931,390.687 534.219,395.399C529.507,400.111 524.02,403.81 517.91,406.394C511.585,409.07 504.866,410.426 497.94,410.426C491.705,410.426 485.612,409.32 479.832,407.139L479.832,311.101C485.613,308.92 491.705,307.814 497.94,307.814Z" style="fill-rule:nonzero;"/>
            <path d="M511.089,375.924L493.916,358.751L511.089,341.579" style="fill:none;stroke:black;stroke-width:7px;stroke-miterlimit:4;"/>
            <path d="M197.626,451.543L197.626,175.503L483.374,175.503L483.374,451.543C483.374,456.21 483.145,460.866 482.688,465.511C482.23,470.155 481.546,474.766 480.636,479.344C479.725,483.921 478.592,488.443 477.238,492.909C475.883,497.375 474.313,501.764 472.526,506.076C470.741,510.387 468.747,514.601 466.547,518.717C464.347,522.833 461.951,526.832 459.358,530.712C456.765,534.592 453.988,538.337 451.028,541.944C448.067,545.552 444.937,549.006 441.636,552.306C438.336,555.606 434.882,558.737 431.275,561.697C427.667,564.658 423.923,567.435 420.042,570.028C416.162,572.621 412.164,575.017 408.048,577.217C403.932,579.417 399.718,581.41 395.406,583.196C391.094,584.982 386.705,586.552 382.239,587.907C377.773,589.262 373.251,590.395 368.674,591.305C364.097,592.216 359.486,592.9 354.841,593.357C350.197,593.815 345.541,594.043 340.874,594.043L340.126,594.043C335.459,594.043 330.803,593.815 326.159,593.357C321.514,592.9 316.903,592.216 312.326,591.305C307.749,590.395 303.227,589.262 298.761,587.907C294.295,586.552 289.906,584.982 285.594,583.196C281.282,581.41 277.068,579.417 272.952,577.217C268.836,575.017 264.838,572.621 260.958,570.028C257.077,567.435 253.333,564.658 249.725,561.697C246.118,558.737 242.664,555.606 239.364,552.306C236.063,549.006 232.933,545.552 229.972,541.944C227.012,538.337 224.235,534.592 221.642,530.712C219.049,526.832 216.653,522.833 214.453,518.717C212.252,514.601 210.259,510.387 208.473,506.076C206.687,501.764 205.117,497.375 203.762,492.909C202.408,488.443 201.275,483.921 200.364,479.344C199.454,474.766 198.77,470.155 198.312,465.511C197.855,460.866 197.626,456.21 197.626,451.543Z" style="fill:none;stroke:black;stroke-width:7px;stroke-miterlimit:4;"/>
            <path d="M444.656,243.54L377.078,243.54L392.341,369.856L341.298,369.856" style="fill:none;stroke:black;stroke-width:7px;stroke-miterlimit:4;"/>
            <path d="M194.366,253.49L194.126,253.49L194.126,172.003L234.367,172.003L234.367,213.489C234.367,218.889 233.309,224.128 231.223,229.059C229.209,233.823 226.325,238.1 222.651,241.774C218.977,245.448 214.699,248.332 209.936,250.347C205.005,252.432 199.766,253.49 194.366,253.49Z" style="fill:rgb(186,177,162);fill-rule:nonzero;"/>
            <path d="M201.126,245.8C203.205,245.368 205.238,244.733 207.209,243.899C211.138,242.238 214.668,239.857 217.701,236.824C220.734,233.791 223.115,230.261 224.776,226.332C226.495,222.269 227.367,217.948 227.367,213.489L227.367,179.003L201.126,179.003L201.126,245.8M194.366,253.49L194.126,253.49L194.126,172.003L234.367,172.003L234.367,213.489C234.367,218.889 233.309,224.128 231.223,229.059C229.209,233.823 226.325,238.1 222.651,241.774C218.977,245.448 214.699,248.332 209.936,250.347C205.005,252.432 199.766,253.49 194.366,253.49Z" style="fill-rule:nonzero;"/>
            <path d="M537.956,179.045L226.333,179.045C227.453,172.207 229.474,165.42 232.34,158.871C235.148,152.455 238.803,146.181 243.205,140.222C247.547,134.344 252.667,128.704 258.423,123.457C264.145,118.24 270.56,113.354 277.489,108.934C284.436,104.504 291.975,100.493 299.899,97.014C307.908,93.498 316.403,90.483 325.148,88.055C343.304,83.013 362.481,80.457 382.145,80.457C401.808,80.457 420.985,83.013 439.141,88.055C447.886,90.483 456.381,93.498 464.39,97.014C472.313,100.493 479.853,104.504 486.8,108.934C493.728,113.354 500.143,118.24 505.866,123.457C511.621,128.704 516.741,134.345 521.083,140.222C525.485,146.18 529.141,152.455 531.948,158.871C534.815,165.421 536.836,172.208 537.956,179.044L537.956,179.045L537.955,179.045L537.956,179.045Z" style="fill:rgb(186,177,162);fill-rule:nonzero;"/>
            <path d="M529.244,172.045C528.262,168.544 527.023,165.077 525.536,161.678C522.937,155.739 519.545,149.92 515.453,144.381C511.382,138.87 506.569,133.57 501.15,128.63C495.722,123.682 489.627,119.041 483.035,114.836C476.391,110.598 469.171,106.758 461.576,103.423C453.871,100.041 445.693,97.139 437.268,94.8C419.722,89.927 401.175,87.457 382.145,87.457C363.114,87.457 344.567,89.927 327.021,94.8C318.596,97.139 310.418,100.041 302.713,103.423C295.118,106.758 287.897,110.598 281.253,114.836C274.661,119.041 268.566,123.682 263.139,128.63C257.719,133.57 252.907,138.87 248.835,144.381C244.743,149.92 241.351,155.74 238.753,161.677C237.265,165.077 236.026,168.543 235.044,172.045L529.244,172.045M537.956,179.045L537.955,179.045L537.956,179.045ZM537.956,179.045L226.333,179.045C227.453,172.207 229.474,165.42 232.34,158.871C235.148,152.455 238.803,146.181 243.205,140.222C247.547,134.344 252.667,128.704 258.423,123.457C264.145,118.24 270.56,113.354 277.489,108.934C284.436,104.504 291.975,100.493 299.899,97.014C307.908,93.498 316.403,90.483 325.148,88.055C343.304,83.013 362.481,80.457 382.145,80.457C401.808,80.457 420.985,83.013 439.141,88.055C447.886,90.483 456.381,93.498 464.39,97.014C472.313,100.493 479.853,104.504 486.8,108.934C493.728,113.354 500.143,118.24 505.866,123.457C511.621,128.704 516.741,134.345 521.083,140.222C525.485,146.18 529.141,152.455 531.948,158.871C534.814,165.421 536.836,172.208 537.956,179.044L537.956,179.045Z" style="fill-rule:nonzero;"/>
            <path d="M269.809,243.93C269.809,243.93 291.599,213.297 325.429,220.321" style="fill:none;stroke:black;stroke-width:7px;stroke-linejoin:miter;stroke-miterlimit:4;"/>
            <path d="M341.51,408.364C341.51,408.364 303.951,406.773 291.417,374.576" style="fill:none;stroke:black;stroke-width:7px;stroke-linejoin:miter;stroke-miterlimit:4;"/>
            <path d="M305.769,292.197L305.769,272.077C305.769,271.076 305.96,270.114 306.343,269.189C306.726,268.265 307.271,267.449 307.979,266.742C308.686,266.034 309.502,265.489 310.426,265.106C311.351,264.723 312.313,264.532 313.314,264.532C314.314,264.532 315.277,264.723 316.201,265.106C317.126,265.489 317.941,266.034 318.649,266.742C319.356,267.449 319.902,268.265 320.285,269.189C320.667,270.114 320.859,271.076 320.859,272.077L320.859,292.197C320.859,293.197 320.667,294.16 320.285,295.084C319.902,296.008 319.356,296.824 318.649,297.532C317.941,298.239 317.126,298.785 316.201,299.167C315.277,299.55 314.314,299.742 313.314,299.742C312.313,299.742 311.351,299.55 310.426,299.167C309.502,298.785 308.686,298.239 307.979,297.532C307.271,296.824 306.726,296.008 306.343,295.084C305.96,294.16 305.769,293.197 305.769,292.197Z" style="fill-rule:nonzero;"/>
            <path d="M410.369,292.197L410.369,272.077C410.369,271.076 410.561,270.114 410.944,269.189C411.327,268.265 411.872,267.449 412.579,266.742C413.287,266.034 414.103,265.489 415.027,265.106C415.951,264.723 416.914,264.532 417.914,264.532C418.915,264.532 419.877,264.723 420.802,265.106C421.726,265.489 422.542,266.034 423.249,266.742C423.957,267.449 424.502,268.265 424.885,269.189C425.268,270.114 425.459,271.076 425.459,272.077L425.459,292.197C425.459,293.197 425.268,294.16 424.885,295.084C424.502,296.008 423.957,296.824 423.249,297.532C422.542,298.239 421.726,298.785 420.802,299.167C419.877,299.55 418.915,299.742 417.914,299.742C416.914,299.742 415.951,299.55 415.027,299.167C414.103,298.785 413.287,298.239 412.579,297.532C411.872,296.824 411.327,296.008 410.944,295.084C410.561,294.16 410.369,293.197 410.369,292.197Z" style="fill-rule:nonzero;"/>
            <path d="M267.319,307.105L267.319,264C267.319,262.807 267.548,261.658 268.004,260.556C268.461,259.453 269.111,258.48 269.955,257.636C270.799,256.792 271.772,256.142 272.875,255.685C273.978,255.228 275.126,255 276.319,255L340.338,255C341.531,255 342.679,255.228 343.782,255.685C344.884,256.142 345.858,256.792 346.702,257.636C347.546,258.48 348.196,259.453 348.653,260.556C349.109,261.658 349.338,262.807 349.338,264L349.338,307.105C349.338,308.299 349.109,309.447 348.653,310.549C348.196,311.652 347.546,312.625 346.702,313.469C345.858,314.313 344.884,314.963 343.782,315.42C342.679,315.877 341.531,316.105 340.338,316.105L276.319,316.105C275.126,316.105 273.978,315.877 272.875,315.42C271.772,314.963 270.799,314.313 269.955,313.469C269.111,312.625 268.461,311.652 268.004,310.549C267.548,309.447 267.319,308.299 267.319,307.105Z" style="fill:none;stroke:rgb(5,5,5);stroke-width:10px;stroke-miterlimit:4;"/>
            <path d="M396.982,307.105L396.982,264C396.982,262.807 397.21,261.658 397.667,260.556C398.123,259.453 398.774,258.48 399.618,257.636C400.462,256.792 401.435,256.142 402.537,255.685C403.64,255.228 404.788,255 405.982,255L470,255C471.193,255 472.342,255.228 473.444,255.685C474.547,256.142 475.52,256.792 476.364,257.636C477.208,258.48 477.858,259.453 478.315,260.556C478.772,261.658 479,262.807 479,264L479,307.105C479,308.299 478.772,309.447 478.315,310.549C477.858,311.652 477.208,312.625 476.364,313.469C475.52,314.313 474.547,314.963 473.444,315.42C472.342,315.877 471.193,316.105 470,316.105L405.982,316.105C404.788,316.105 403.64,315.877 402.537,315.42C401.435,314.963 400.462,314.313 399.618,313.469C398.774,312.625 398.123,311.652 397.667,310.549C397.21,309.447 396.982,308.299 396.982,307.105Z" style="fill:none;stroke:rgb(5,5,5);stroke-width:10px;stroke-miterlimit:4;"/>
            <path d="M354.86,270.39L394.596,270.39" style="fill:none;stroke:black;stroke-width:10px;stroke-linejoin:miter;stroke-miterlimit:4;"/>
            <path d="M267.025,258.888L197.5,310.5" style="fill:none;stroke:black;stroke-width:10px;stroke-linejoin:miter;stroke-miterlimit:4;"/>
        </g>
    </g>
</svg>
